<svg width="50" height="50" viewBox="0 0 50 50" fill="none" xmlns="http://www.w3.org/2000/svg">
<path d="M24.5742 0.0996094C38.0906 0.0998083 49.0479 11.0579 49.0479 24.5742C49.0476 38.0904 38.0904 49.0477 24.5742 49.0479C11.0578 49.0479 0.099863 38.0905 0.0996094 24.5742C0.0996094 11.0578 11.0576 0.0996094 24.5742 0.0996094Z" fill="white"/>
<path d="M24.5742 0.0996094C38.0906 0.0998083 49.0479 11.0579 49.0479 24.5742C49.0476 38.0904 38.0904 49.0477 24.5742 49.0479C11.0578 49.0479 0.099863 38.0905 0.0996094 24.5742C0.0996094 11.0578 11.0576 0.0996094 24.5742 0.0996094Z" fill="url(#paint0_linear_143_7085)"/>
<path d="M24.5742 0.0996094C38.0906 0.0998083 49.0479 11.0579 49.0479 24.5742C49.0476 38.0904 38.0904 49.0477 24.5742 49.0479C11.0578 49.0479 0.099863 38.0905 0.0996094 24.5742C0.0996094 11.0578 11.0576 0.0996094 24.5742 0.0996094Z" stroke="#D0D5DD" stroke-width="0.2"/>
<path fill-rule="evenodd" clip-rule="evenodd" d="M32.3387 11.618C32.7119 10.2925 31.4256 9.50868 30.2508 10.3456L13.8516 22.0283C12.5776 22.936 12.778 24.7442 14.1526 24.7442H18.471V24.7108H26.8873L20.0296 27.1305L17.0064 37.8706C16.6332 39.1961 17.9194 39.9799 19.0943 39.1429L35.4935 27.4602C36.7676 26.5526 36.567 24.7442 35.1925 24.7442H28.6438L32.3387 11.618Z" fill="url(#paint1_linear_143_7085)"/>
<defs>
<linearGradient id="paint0_linear_143_7085" x1="24.5738" y1="0" x2="24.5738" y2="49.1476" gradientUnits="userSpaceOnUse">
<stop stop-color="white"/>
<stop offset="1" stop-color="#D0D5DD"/>
</linearGradient>
<linearGradient id="paint1_linear_143_7085" x1="18.8363" y1="39.4885" x2="35.4783" y2="13.1386" gradientUnits="userSpaceOnUse">
<stop stop-color="#53389E"/>
<stop offset="1" stop-color="#6941C6"/>
</linearGradient>
</defs>
</svg>
